# xmcd
#
# Track frame offsets:
#	150
#	17338
#	30148
#	44154
#	60599
#	74684
#	90964
#	103449
#
# Disc length: 1579 seconds
# Revision: 0
# Processed by: cddbd v1.5.2PL0 Copyright (c) Steve Scherf et al.
# Submitted via: dBpowerAMP V12.0
#
DISCID=62062908
DTITLE=Chris Lindberg - Better Live In The Moment
DYEAR=2016
DGENRE=Country
TTITLE0=Pensacola
TTITLE1=Black Out Friday Night
TTITLE2=By Your Side
TTITLE3=Better Live In The Moment
TTITLE4=L.A. Calling (Marilyn Monroe)
TTITLE5=What You Wanna Do About It
TTITLE6=Falling In Love
TTITLE7=Turn It Loose
EXTD=
EXTT0=
EXTT1=
EXTT2=
EXTT3=
EXTT4=
EXTT5=
EXTT6=
EXTT7=
PLAYORDER=
